<svg width="74" height="70" viewBox="0 0 74 70" fill="none" xmlns="http://www.w3.org/2000/svg">
<g clip-path="url(#clip0_6_108)">
<g filter="url(#filter0_d_6_108)">
<path d="M62.7173 19.3869C62.2086 17.6913 61.1913 16.3348 59.6652 15.5435C57.7434 14.5261 55.4826 14.6391 53.8999 14.9217L50.6217 3.33477C50.3956 2.54347 49.7739 1.92173 48.9826 1.75217C48.1913 1.5826 47.3434 1.80869 46.7782 2.43043C38.6956 11.4739 35.3608 13.6783 26.4304 17.5783L19.4217 19.613C13.2608 21.3652 9.69995 27.9217 11.4521 34.0826C12.3 37.0782 14.2782 39.6217 17.0478 41.1478C18.8 42.1087 20.7217 42.6174 22.6434 42.6174C23.5478 42.6174 24.5086 42.5043 25.413 42.2782L26.1478 44.9348C26.5434 46.3478 27.3347 47.5913 28.3521 48.6087L29.5391 49.7391C29.9913 50.1348 30.5565 50.3609 31.1217 50.3609C31.7434 50.3609 32.3086 50.1348 32.7608 49.6826C33.6086 48.7782 33.6086 47.3652 32.6478 46.4609L31.4608 45.3304C31.0086 44.8782 30.6695 44.313 30.5 43.6913L29.7652 41.0348L33.0434 40.0739C42.426 38.6609 46.6652 38.7739 58.1391 42.0522C58.3652 42.1087 58.5347 42.1652 58.7608 42.1652C59.326 42.1652 59.9478 41.9391 60.3434 41.4869C60.9086 40.9217 61.1347 40.0739 60.9086 39.2826L57.5739 27.6956C59.0434 27.1304 61.0217 26.113 62.1521 24.2478C63 22.7783 63.226 21.1391 62.7173 19.3869ZM19.2521 37.1913C17.5565 36.2869 16.3695 34.7043 15.8043 32.8956C14.7304 29.0522 16.9347 25.0956 20.6652 23.9652L25.7521 22.4956L28.0695 30.6913L29.6521 36.3435L24.5652 37.813C22.813 38.3217 20.8913 38.0956 19.2521 37.1913ZM42.2565 34.7043C39.713 34.7043 37.1695 34.9304 34.1739 35.3261L30.8956 23.7391L30.1043 20.913C37.226 17.6348 41.0695 15.0913 47.4 8.47825L55.426 36.6826C50.0565 35.2696 46.213 34.7043 42.2565 34.7043ZM58.3086 21.8739C57.9695 22.4956 57.1217 22.9478 56.3304 23.2869L55.1999 19.3304C56.0478 19.2174 57.0086 19.2174 57.6304 19.5565C57.913 19.7261 58.1956 19.9522 58.4217 20.5739C58.5913 21.2522 58.4217 21.5913 58.3086 21.8739ZM43.9521 18.1435C44.5739 19.0478 44.4043 20.2913 43.5 20.913C41.4086 22.3826 39.0347 23.6826 38.9217 23.7391C38.6391 23.9087 38.2999 23.9652 38.0173 23.9652C37.2826 23.9652 36.6043 23.5696 36.2652 22.8913C35.7565 21.9304 36.1521 20.7435 37.113 20.2348C37.113 20.2348 39.3739 19.0478 41.1826 17.7478C42.0869 17.013 43.3304 17.2391 43.9521 18.1435Z" fill="url(#paint0_linear_6_108)"/>
<path d="M55.0685 20.5778L55.1902 20.6265L55.4552 21.2449L55.4643 21.3133L55.0262 21.4228C55.0184 21.3915 55.0011 21.31 54.9953 21.1877C54.9894 21.0612 54.9972 20.9216 55.022 20.7776C55.0342 20.7068 55.0521 20.6359 55.0685 20.5778ZM55.5071 21.6338L55.6083 22.3933C55.5437 22.3374 55.471 22.2674 55.3984 22.1833C55.2031 21.9572 55.1351 21.7775 55.1324 21.77L55.5071 21.6338Z" stroke="white" stroke-width="7"/>
</g>
</g>
<defs>
<filter id="filter0_d_6_108" x="7.00574" y="1.69766" width="59.9806" height="56.6632" filterUnits="userSpaceOnUse" color-interpolation-filters="sRGB">
<feFlood flood-opacity="0" result="BackgroundImageFix"/>
<feColorMatrix in="SourceAlpha" type="matrix" values="0 0 0 0 0 0 0 0 0 0 0 0 0 0 0 0 0 0 127 0" result="hardAlpha"/>
<feOffset dy="4"/>
<feGaussianBlur stdDeviation="2"/>
<feComposite in2="hardAlpha" operator="out"/>
<feColorMatrix type="matrix" values="0 0 0 0 0 0 0 0 0 0 0 0 0 0 0 0 0 0 0.25 0"/>
<feBlend mode="normal" in2="BackgroundImageFix" result="effect1_dropShadow_6_108"/>
<feBlend mode="normal" in="SourceGraphic" in2="effect1_dropShadow_6_108" result="shape"/>
</filter>
<linearGradient id="paint0_linear_6_108" x1="36.996" y1="1.69766" x2="36.996" y2="50.3609" gradientUnits="userSpaceOnUse">
<stop stop-color="white"/>
<stop offset="1" stop-color="white"/>
</linearGradient>
<clipPath id="clip0_6_108">
<rect width="52" height="52" fill="white" transform="translate(11)"/>
</clipPath>
</defs>
</svg>
