<svg width="74" height="70" viewBox="0 0 74 70" fill="none" xmlns="http://www.w3.org/2000/svg">
<g clip-path="url(#clip0_6_120)">
<g filter="url(#filter0_d_6_120)">
<path d="M9.49277 49.4943C5.786 44.4017 3.60547 38.246 3.60547 31.5936C3.60547 14.1465 18.554 0 36.9993 0C55.4458 0 70.3944 14.1465 70.3944 31.5936C70.3944 38.2424 68.2114 44.4017 64.5059 49.4943C66.7838 45.4097 68.0797 40.7624 68.0797 35.8206C68.0797 19.5887 54.1714 6.42382 36.9993 6.42382C19.8272 6.42382 5.91888 19.5887 5.91888 35.8206C5.91888 40.7624 7.22365 45.4097 9.49277 49.4943ZM55.2497 32.4926C55.2497 22.9658 47.0806 15.2287 36.9993 15.2287C26.9193 15.2287 18.7489 22.9658 18.7489 32.4926C18.7489 35.3478 19.5475 37.9922 20.8396 40.3602C20.3865 38.9104 20.0638 37.4056 20.0638 35.8182C20.0638 26.9762 27.6368 19.8018 36.9993 19.8018C46.3618 19.8018 53.9335 26.9738 53.9335 35.8182C53.9335 37.4068 53.6222 38.9104 53.1603 40.3602C54.4537 37.9863 55.2497 35.3454 55.2497 32.4926ZM36.9993 27.2504C33.9392 27.2504 31.4626 29.5955 31.4626 32.4878C31.4626 35.3849 33.9392 37.7277 36.9993 37.7277C40.0594 37.7277 42.5361 35.3849 42.5361 32.4878C42.5361 29.5955 40.0594 27.2504 36.9993 27.2504ZM24.0819 70L30.6564 40.3111H43.3447L49.9243 70H46.3238L45.2266 65.008H28.7859L27.6837 70H24.0819ZM32.008 50.4424H41.9957L40.4897 43.6331H33.5115L32.008 50.4424ZM29.5187 61.6775H44.4825L42.7322 53.7741H31.2639L29.5187 61.6775Z" fill="url(#paint0_linear_6_120)"/>
</g>
</g>
<defs>
<filter id="filter0_d_6_120" x="-0.394531" y="0" width="74.7889" height="78" filterUnits="userSpaceOnUse" color-interpolation-filters="sRGB">
<feFlood flood-opacity="0" result="BackgroundImageFix"/>
<feColorMatrix in="SourceAlpha" type="matrix" values="0 0 0 0 0 0 0 0 0 0 0 0 0 0 0 0 0 0 127 0" result="hardAlpha"/>
<feOffset dy="4"/>
<feGaussianBlur stdDeviation="2"/>
<feComposite in2="hardAlpha" operator="out"/>
<feColorMatrix type="matrix" values="0 0 0 0 0 0 0 0 0 0 0 0 0 0 0 0 0 0 0.25 0"/>
<feBlend mode="normal" in2="BackgroundImageFix" result="effect1_dropShadow_6_120"/>
<feBlend mode="normal" in="SourceGraphic" in2="effect1_dropShadow_6_120" result="shape"/>
</filter>
<linearGradient id="paint0_linear_6_120" x1="36.9999" y1="0" x2="36.9999" y2="70" gradientUnits="userSpaceOnUse">
<stop stop-color="white"/>
<stop offset="1" stop-color="#072F99"/>
</linearGradient>
<clipPath id="clip0_6_120">
<rect width="74" height="70" fill="white"/>
</clipPath>
</defs>
</svg>
