<svg width="16" height="16" viewBox="0 0 16 16" fill="none" xmlns="http://www.w3.org/2000/svg">
<path d="M3.83634 13.522L2.66634 5.33334H13.333L12.163 13.522C12.1176 13.8397 11.9591 14.1304 11.7166 14.3407C11.4741 14.5509 11.164 14.6667 10.843 14.6667H5.15634C4.83539 14.6667 4.5252 14.5509 4.28273 14.3407C4.04025 14.1304 3.88176 13.8397 3.83634 13.522ZM13.9997 2.66668H10.6663V2.00001C10.6663 1.8232 10.5961 1.65363 10.4711 1.52861C10.3461 1.40358 10.1765 1.33334 9.99967 1.33334H5.99967C5.82286 1.33334 5.65329 1.40358 5.52827 1.52861C5.40325 1.65363 5.33301 1.8232 5.33301 2.00001V2.66668H1.99967C1.82286 2.66668 1.65329 2.73691 1.52827 2.86194C1.40325 2.98696 1.33301 3.15653 1.33301 3.33334C1.33301 3.51015 1.40325 3.67972 1.52827 3.80475C1.65329 3.92977 1.82286 4.00001 1.99967 4.00001H13.9997C14.1765 4.00001 14.3461 3.92977 14.4711 3.80475C14.5961 3.67972 14.6663 3.51015 14.6663 3.33334C14.6663 3.15653 14.5961 2.98696 14.4711 2.86194C14.3461 2.73691 14.1765 2.66668 13.9997 2.66668Z" fill="#FF0000"/>
</svg>
