<svg width="16" height="16" viewBox="0 0 16 16" fill="none" xmlns="http://www.w3.org/2000/svg">
<path d="M15.4901 7.3H14.3301V13.65H1.67011V3.28H8.00011V2H1.67011C1.50854 2.00507 1.34962 2.04246 1.20274 2.10997C1.05586 2.17747 0.923995 2.27373 0.814933 2.39304C0.705871 2.51236 0.621822 2.65232 0.567749 2.80466C0.513677 2.957 0.490677 3.11862 0.500108 3.28V13.65C0.494768 13.8089 0.520803 13.9673 0.576726 14.1162C0.632649 14.265 0.717363 14.4014 0.826025 14.5175C0.934686 14.6336 1.06516 14.7271 1.21 14.7928C1.35483 14.8584 1.51118 14.8948 1.67011 14.9H14.3301C14.489 14.8948 14.6454 14.8584 14.7902 14.7928C14.9351 14.7271 15.0655 14.6336 15.1742 14.5175C15.2829 14.4014 15.3676 14.265 15.4235 14.1162C15.4794 13.9673 15.5054 13.8089 15.5001 13.65L15.4901 7.3Z" fill="#728FDE"/>
<path d="M10.5605 2.87001L6.22048 7.22001L5.78048 7.66001L5.70048 7.74001L4.18048 10.9C4.0785 11.1029 4.04306 11.3327 4.07919 11.5569C4.11533 11.7811 4.22119 11.9882 4.38176 12.1487C4.54232 12.3093 4.7494 12.4152 4.97357 12.4513C5.19775 12.4874 5.42761 12.452 5.63048 12.35L8.77048 10.82L9.30048 10.29L9.73048 9.86001L14.0705 5.50001L14.5205 5.06001L14.7705 4.81001C15.1784 4.4013 15.4075 3.84745 15.4075 3.27001C15.4075 2.69257 15.1784 2.13872 14.7705 1.73001C14.3637 1.32618 13.8137 1.0997 13.2405 1.10001C12.6643 1.09923 12.1109 1.32559 11.7005 1.73001L11.0005 2.42001L10.5505 2.86001L10.5605 2.87001ZM5.51048 11L6.69048 8.57001L7.94048 9.83001L5.51048 11ZM7.51048 7.64001L11.4105 3.73001L12.7105 5.04001L8.85048 9.00001L7.51048 7.64001ZM13.1905 2.33001C13.3113 2.3296 13.431 2.35326 13.5426 2.39962C13.6542 2.44598 13.7555 2.5141 13.8405 2.60001C14.0133 2.7742 14.1103 3.00963 14.1103 3.25501C14.1103 3.50038 14.0133 3.73582 13.8405 3.91001L13.5905 4.15001L12.2905 2.85001L12.5405 2.60001C12.6307 2.51114 12.7391 2.44279 12.8582 2.39965C12.9773 2.3565 13.1043 2.33957 13.2305 2.35001L13.1905 2.33001Z" fill="#072F99"/>
</svg>
