<svg width="38" height="38" viewBox="0 0 38 38" fill="none" xmlns="http://www.w3.org/2000/svg">
<path d="M30.0835 29.6875H7.91683C7.18324 29.6834 6.48089 29.3901 5.96214 28.8713C5.44341 28.3526 5.15016 27.6502 5.146 26.9167V11.0833C5.15016 10.3497 5.44341 9.64739 5.96214 9.12864C6.48089 8.60991 7.18324 8.31666 7.91683 8.3125H30.0835C30.8171 8.31666 31.5194 8.60991 32.0381 9.12864C32.557 9.64739 32.8502 10.3497 32.8543 11.0833V26.9167C32.8502 27.6502 32.557 28.3526 32.0381 28.8713C31.5194 29.3901 30.8171 29.6834 30.0835 29.6875ZM7.91683 10.6875C7.81185 10.6875 7.71117 10.7292 7.63693 10.8034C7.5627 10.8777 7.521 10.9784 7.521 11.0833V26.9167C7.521 27.0216 7.5627 27.1223 7.63693 27.1966C7.71117 27.2709 7.81185 27.3125 7.91683 27.3125H30.0835C30.1885 27.3125 30.2892 27.2709 30.3634 27.1966C30.4377 27.1223 30.4793 27.0216 30.4793 26.9167V11.0833C30.4793 10.9784 30.4377 10.8777 30.3634 10.8034C30.2892 10.7292 30.1885 10.6875 30.0835 10.6875H7.91683Z" fill="white"/>
<path d="M14.2502 18.6042C13.6239 18.6042 13.0116 18.4185 12.4909 18.0704C11.9701 17.7226 11.5642 17.2279 11.3245 16.6494C11.0849 16.0707 11.0222 15.434 11.1443 14.8197C11.2665 14.2055 11.5681 13.6412 12.011 13.1983C12.4539 12.7555 13.0181 12.4539 13.6324 12.3317C14.2466 12.2095 14.8834 12.2722 15.462 12.5119C16.0406 12.7516 16.5352 13.1574 16.8831 13.6782C17.2311 14.199 17.4168 14.8112 17.4168 15.4375C17.4168 16.2773 17.0832 17.0828 16.4893 17.6767C15.8954 18.2706 15.09 18.6042 14.2502 18.6042ZM14.2502 14.6458C14.0936 14.6458 13.9405 14.6923 13.8103 14.7793C13.6801 14.8663 13.5787 14.9899 13.5188 15.1346C13.4588 15.2792 13.4432 15.4384 13.4737 15.592C13.5043 15.7455 13.5797 15.8865 13.6904 15.9974C13.8011 16.108 13.9421 16.1834 14.0957 16.214C14.2493 16.2445 14.4085 16.2289 14.5531 16.1689C14.6978 16.109 14.8214 16.0075 14.9084 15.8774C14.9954 15.7471 15.0418 15.5941 15.0418 15.4375C15.0418 15.2275 14.9584 15.0262 14.8099 14.8777C14.6615 14.7293 14.4601 14.6458 14.2502 14.6458Z" fill="white"/>
<path d="M19 24.9375C18.6863 24.9334 18.3866 24.807 18.1648 24.5852C17.943 24.3634 17.8166 24.0637 17.8125 23.75C17.8125 22.6733 17.5433 21.7708 14.25 21.7708C10.9567 21.7708 10.6875 22.6733 10.6875 23.75C10.6875 24.0649 10.5624 24.367 10.3397 24.5896C10.117 24.8124 9.81494 24.9375 9.5 24.9375C9.18506 24.9375 8.88301 24.8124 8.66031 24.5896C8.43761 24.367 8.3125 24.0649 8.3125 23.75C8.3125 19.3958 12.7775 19.3958 14.25 19.3958C15.7225 19.3958 20.1875 19.3958 20.1875 23.75C20.1834 24.0637 20.057 24.3634 19.8352 24.5852C19.6134 24.807 19.3137 24.9334 19 24.9375Z" fill="white"/>
<path d="M26.9165 17.0208H22.1665C21.8516 17.0208 21.5495 16.8957 21.3269 16.673C21.1041 16.4504 20.979 16.1483 20.979 15.8333C20.979 15.5184 21.1041 15.2163 21.3269 14.9936C21.5495 14.7709 21.8516 14.6458 22.1665 14.6458H26.9165C27.2314 14.6458 27.5335 14.7709 27.7561 14.9936C27.9789 15.2163 28.104 15.5184 28.104 15.8333C28.104 16.1483 27.9789 16.4504 27.7561 16.673C27.5335 16.8957 27.2314 17.0208 26.9165 17.0208Z" fill="white"/>
<path d="M25.3332 21.7708H22.1665C21.8516 21.7708 21.5495 21.6457 21.3269 21.423C21.1041 21.2004 20.979 20.8983 20.979 20.5833C20.979 20.2684 21.1041 19.9663 21.3269 19.7437C21.5495 19.5209 21.8516 19.3958 22.1665 19.3958H25.3332C25.6481 19.3958 25.9502 19.5209 26.1728 19.7437C26.3956 19.9663 26.5207 20.2684 26.5207 20.5833C26.5207 20.8983 26.3956 21.2004 26.1728 21.423C25.9502 21.6457 25.6481 21.7708 25.3332 21.7708Z" fill="white"/>
</svg>
