<svg width="24" height="24" viewBox="0 0 24 24" fill="none" xmlns="http://www.w3.org/2000/svg">
<g clip-path="url(#clip0_3_33)">
<path d="M17.0001 14H12.6591C12.1873 15.3344 11.2589 16.4591 10.0381 17.1753C8.81727 17.8914 7.38258 18.1529 5.98759 17.9136C4.59259 17.6742 3.32713 16.9495 2.41484 15.8673C1.50256 14.7852 1.0022 13.4154 1.0022 12C1.0022 10.5846 1.50256 9.21481 2.41484 8.13268C3.32713 7.05054 4.59259 6.32575 5.98759 6.08641C7.38258 5.84706 8.81727 6.10858 10.0381 6.82473C11.2589 7.54089 12.1873 8.66557 12.6591 10H23.0001V14H21.0001V18H17.0001V14ZM7.00005 14C7.53048 14 8.03919 13.7893 8.41426 13.4142C8.78934 13.0391 9.00005 12.5304 9.00005 12C9.00005 11.4696 8.78934 10.9609 8.41426 10.5858C8.03919 10.2107 7.53048 10 7.00005 10C6.46962 10 5.96091 10.2107 5.58584 10.5858C5.21077 10.9609 5.00005 11.4696 5.00005 12C5.00005 12.5304 5.21077 13.0391 5.58584 13.4142C5.96091 13.7893 6.46962 14 7.00005 14Z" fill="white"/>
</g>
<defs>
<clipPath id="clip0_3_33">
<rect width="24" height="24" fill="white"/>
</clipPath>
</defs>
</svg>
