<svg width="64" height="64" viewBox="0 0 64 64" fill="none" xmlns="http://www.w3.org/2000/svg">
<g clip-path="url(#clip0_6_126)">
<path d="M18.4586 26.0106C18.368 25.2772 17.6933 24.7492 16.976 24.8452C16.0346 24.9599 15.1254 25.0826 14.2534 25.2159C13.5254 25.3252 13.024 26.0052 13.136 26.7332C13.2374 27.3946 13.8054 27.8666 14.4506 27.8666C14.5173 27.8666 14.5866 27.8612 14.656 27.8506C15.504 27.72 16.384 27.6026 17.2934 27.4932C18.0266 27.4054 18.5466 26.7414 18.4586 26.0106Z" fill="url(#paint0_linear_6_126)"/>
<path d="M57.808 26.992C56.9866 26.728 56.0826 26.4774 55.1066 26.2426C54.3573 26.0693 53.6666 26.5146 53.496 27.2293C53.3226 27.9466 53.7626 28.6639 54.48 28.8373C55.3866 29.0559 56.224 29.2879 56.9866 29.5333C57.12 29.5759 57.2586 29.5973 57.3946 29.5973C57.9573 29.5973 58.4826 29.2373 58.6666 28.6693C58.8934 27.9706 58.5094 27.2186 57.808 26.992Z" fill="url(#paint1_linear_6_126)"/>
<path d="M49.6826 25.2026C48.8026 25.072 47.8986 24.9493 46.9626 24.8373C46.248 24.7653 45.568 25.2719 45.48 26.0026C45.392 26.7334 45.9146 27.3973 46.6454 27.4853C47.5548 27.5946 48.4348 27.7119 49.2854 27.8399C49.352 27.8479 49.4214 27.8533 49.4854 27.8533C50.1334 27.8533 50.704 27.3786 50.8028 26.7173C50.912 25.9894 50.408 25.312 49.6826 25.2026Z" fill="url(#paint2_linear_6_126)"/>
<path d="M33.3306 24.0054L32 24L30.6026 24.0054C29.8666 24.0107 29.2746 24.6134 29.2772 25.3494C29.2826 26.0854 29.8986 26.6614 30.6212 26.672L32 26.6666L33.304 26.672C33.3094 26.672 33.3146 26.672 33.3174 26.672C34.0507 26.672 34.6427 26.0854 34.6507 25.3494C34.6586 24.616 34.0614 24.0106 33.3306 24.0054Z" fill="url(#paint3_linear_6_126)"/>
<path d="M10.4374 27.2374C10.2614 26.5227 9.53605 26.0827 8.8268 26.2587C7.85343 26.4961 6.95218 26.7494 6.1308 27.0134C5.43218 27.24 5.04543 27.9894 5.27218 28.6907C5.45618 29.2561 5.9788 29.6161 6.54155 29.6161C6.67755 29.6161 6.81618 29.5947 6.95218 29.5495C7.7148 29.3041 8.55218 29.0695 9.4588 28.8481C10.1734 28.6746 10.6107 27.9546 10.4374 27.2374Z" fill="url(#paint4_linear_6_126)"/>
<g filter="url(#filter0_d_6_126)">
<path d="M64 31.9974C64 31.9894 63.9974 31.984 63.9974 31.9788C63.9866 14.3414 49.6374 0 32 0C14.3546 0 0 14.3546 0 32C0 49.6454 14.3546 64 32 64C49.64 64 63.992 49.6534 64 32.0134C63.9974 32.008 64 32.0026 64 31.9974ZM2.77338 29.8854C3.776 15.904 14.6054 4.616 28.3867 2.912C25.9041 7.41062 24.7014 16.368 24.2401 24.2214C23.6295 24.256 23.0161 24.288 22.4215 24.3307C21.6855 24.3814 21.1309 25.0214 21.1841 25.7547C21.2348 26.4587 21.8188 26.9947 22.5121 26.9947C22.5467 26.9947 22.5787 26.9921 22.6055 26.9894C23.0989 26.9548 23.6055 26.928 24.1095 26.8988C24.0346 28.7306 24 30.4666 24 32C24 33.536 24.0374 35.2746 24.1094 37.1066C10.184 36.312 2.66663 33.5414 2.66663 32C2.66663 31.9226 2.736 31.7946 2.85325 31.6586C3.296 31.1306 3.24262 30.3706 2.77338 29.8854ZM2.912 35.6134C7.41337 38.0988 16.3814 39.3014 24.24 39.76C24.6986 47.616 25.9014 56.584 28.3866 61.088C15.1014 59.4454 4.55463 48.8986 2.912 35.6134ZM34.1094 61.2266C33.624 60.76 32.8667 60.7093 32.3414 61.1493C32.2054 61.2639 32.0774 61.3332 32 61.3332C30.4586 61.3332 27.688 53.8132 26.8934 39.8906C28.7254 39.9626 30.4614 40 32 40C33.536 40 35.2694 39.9626 37.1014 39.8906C37.072 40.3706 37.048 40.8586 37.016 41.3306C36.968 42.0666 37.5226 42.7012 38.256 42.752C38.288 42.7546 38.3174 42.7546 38.3494 42.7546C39.0428 42.7546 39.6268 42.216 39.6774 41.5066C39.7174 40.936 39.7467 40.344 39.7814 39.76C47.6348 39.2986 56.5894 38.096 61.088 35.6134C59.3814 49.3946 48.0934 60.224 34.1094 61.2266ZM32 37.3334C30.168 37.3334 28.44 37.2907 26.7706 37.2294C26.7066 35.56 26.6666 33.832 26.6666 32C26.6666 13.0214 30.1893 2.66663 32 2.66663C32.0774 2.66663 32.2054 2.736 32.344 2.85063C32.592 3.05862 32.8986 3.16263 33.2 3.16263C33.5334 3.16263 33.8534 3.016 34.1066 2.77325C48.5946 3.81063 60.184 15.3972 61.224 29.8879C60.7574 30.3732 60.704 31.1332 61.1466 31.6559C61.264 31.7945 61.3332 31.9225 61.3332 31.9999C61.3334 33.8106 50.9786 37.3334 32 37.3334Z" fill="url(#paint5_linear_6_126)"/>
</g>
<path d="M39.992 30.5974C39.984 29.8614 39.264 29.232 38.6427 29.28C37.9067 29.288 37.3173 29.8934 37.3253 30.6294L37.3334 32L37.328 33.312C37.3227 34.048 37.9174 34.6506 38.6534 34.6534C38.656 34.6534 38.6588 34.6534 38.6614 34.6534C39.392 34.6534 39.9894 34.0614 39.9948 33.328L40 32L39.992 30.5974Z" fill="url(#paint6_linear_6_126)"/>
<path d="M39.1574 16.9734C39.0454 16.0348 38.92 15.128 38.7867 14.2534C38.6774 13.5254 37.9654 13.0428 37.2721 13.1334C36.5415 13.2428 36.0427 13.9228 36.1521 14.6508C36.2801 15.4988 36.4001 16.3814 36.5121 17.2908C36.5921 17.9681 37.1681 18.4641 37.8321 18.4641C37.8855 18.4641 37.9415 18.4615 37.9947 18.4588C38.7254 18.368 39.2454 17.704 39.1574 16.9734Z" fill="url(#paint7_linear_6_126)"/>
<path d="M38.0053 45.4774C37.2987 45.4 36.6079 45.9094 36.5199 46.6428C36.4079 47.5521 36.2906 48.4321 36.1599 49.2801C36.0479 50.0081 36.5493 50.6881 37.2746 50.8001C37.3412 50.8108 37.4132 50.8161 37.4799 50.8161C38.1253 50.8161 38.6933 50.3441 38.7973 49.6855C38.9333 48.8081 39.0559 47.9015 39.1679 46.9629C39.2559 46.232 38.7333 45.568 38.0053 45.4774Z" fill="url(#paint8_linear_6_126)"/>
<path d="M36.7706 53.496C36.0426 53.32 35.3306 53.7654 35.16 54.48C34.9414 55.3866 34.7094 56.2294 34.464 56.992C34.24 57.6906 34.6266 58.4426 35.328 58.6666C35.4614 58.7093 35.6 58.728 35.7334 58.728C36.2987 58.728 36.824 58.368 37.008 57.8026C37.2666 56.984 37.52 56.0826 37.7546 55.1066C37.9306 54.3894 37.4906 53.6694 36.7706 53.496Z" fill="url(#paint9_linear_6_126)"/>
<path d="M37.7414 8.832C37.5014 7.856 37.2534 6.952 36.9868 6.13338C36.7601 5.43475 36.0108 5.05075 35.3094 5.27475C34.6108 5.49875 34.224 6.25075 34.4508 6.95213C34.6934 7.71213 34.9308 8.5495 35.1494 9.45875C35.296 10.0694 35.8428 10.4774 36.4454 10.4774C36.5494 10.4774 36.6534 10.4668 36.76 10.4428C37.4746 10.2694 37.912 9.54938 37.7414 8.832Z" fill="url(#paint10_linear_6_126)"/>
<path d="M41.512 24.328C40.9467 24.2854 40.36 24.256 39.776 24.224C39.7414 23.6186 39.7094 23.008 39.6694 22.416C39.6188 21.68 38.904 21.112 38.2454 21.1814C37.5068 21.232 36.952 21.872 37.008 22.6054C37.072 23.4774 37.1254 24.368 37.1707 25.272C37.1893 25.6426 37.36 25.9654 37.616 26.1974C37.84 26.5494 38.208 26.808 38.656 26.8267C39.5627 26.8721 40.4534 26.9254 41.3227 26.9867C41.3573 26.9894 41.3867 26.9894 41.4213 26.9894C42.1119 26.9894 42.6987 26.4534 42.7467 25.7547C42.7974 25.0186 42.2454 24.3814 41.512 24.328Z" fill="url(#paint11_linear_6_126)"/>
</g>
<defs>
<filter id="filter0_d_6_126" x="-4" y="0" width="72" height="72" filterUnits="userSpaceOnUse" color-interpolation-filters="sRGB">
<feFlood flood-opacity="0" result="BackgroundImageFix"/>
<feColorMatrix in="SourceAlpha" type="matrix" values="0 0 0 0 0 0 0 0 0 0 0 0 0 0 0 0 0 0 127 0" result="hardAlpha"/>
<feOffset dy="4"/>
<feGaussianBlur stdDeviation="2"/>
<feComposite in2="hardAlpha" operator="out"/>
<feColorMatrix type="matrix" values="0 0 0 0 0 0 0 0 0 0 0 0 0 0 0 0 0 0 0.25 0"/>
<feBlend mode="normal" in2="BackgroundImageFix" result="effect1_dropShadow_6_126"/>
<feBlend mode="normal" in="SourceGraphic" in2="effect1_dropShadow_6_126" result="shape"/>
</filter>
<linearGradient id="paint0_linear_6_126" x1="15.7944" y1="24.834" x2="15.7944" y2="27.8666" gradientUnits="userSpaceOnUse">
<stop offset="0.671875" stop-color="white"/>
<stop offset="1" stop-color="#728FDE"/>
</linearGradient>
<linearGradient id="paint1_linear_6_126" x1="56.095" y1="26.2052" x2="56.095" y2="29.5973" gradientUnits="userSpaceOnUse">
<stop offset="0.671875" stop-color="white"/>
<stop offset="1" stop-color="#728FDE"/>
</linearGradient>
<linearGradient id="paint2_linear_6_126" x1="48.144" y1="24.8304" x2="48.144" y2="27.8533" gradientUnits="userSpaceOnUse">
<stop offset="0.671875" stop-color="white"/>
<stop offset="1" stop-color="#728FDE"/>
</linearGradient>
<linearGradient id="paint3_linear_6_126" x1="31.964" y1="24" x2="31.964" y2="26.672" gradientUnits="userSpaceOnUse">
<stop offset="0.671875" stop-color="white"/>
<stop offset="1" stop-color="#728FDE"/>
</linearGradient>
<linearGradient id="paint4_linear_6_126" x1="7.84129" y1="26.22" x2="7.84129" y2="29.6161" gradientUnits="userSpaceOnUse">
<stop offset="0.671875" stop-color="white"/>
<stop offset="1" stop-color="#728FDE"/>
</linearGradient>
<linearGradient id="paint5_linear_6_126" x1="32" y1="0" x2="32" y2="64" gradientUnits="userSpaceOnUse">
<stop offset="0.671875" stop-color="white"/>
<stop offset="1" stop-color="#728FDE"/>
</linearGradient>
<linearGradient id="paint6_linear_6_126" x1="38.6626" y1="29.2774" x2="38.6626" y2="34.6534" gradientUnits="userSpaceOnUse">
<stop offset="0.671875" stop-color="white"/>
<stop offset="1" stop-color="#728FDE"/>
</linearGradient>
<linearGradient id="paint7_linear_6_126" x1="37.6521" y1="13.1225" x2="37.6521" y2="18.4641" gradientUnits="userSpaceOnUse">
<stop offset="0.671875" stop-color="white"/>
<stop offset="1" stop-color="#728FDE"/>
</linearGradient>
<linearGradient id="paint8_linear_6_126" x1="37.6609" y1="45.4696" x2="37.6609" y2="50.8161" gradientUnits="userSpaceOnUse">
<stop offset="0.671875" stop-color="white"/>
<stop offset="1" stop-color="#728FDE"/>
</linearGradient>
<linearGradient id="paint9_linear_6_126" x1="36.0969" y1="53.4576" x2="36.0969" y2="58.728" gradientUnits="userSpaceOnUse">
<stop offset="0.671875" stop-color="white"/>
<stop offset="1" stop-color="#728FDE"/>
</linearGradient>
<linearGradient id="paint10_linear_6_126" x1="36.0821" y1="5.21089" x2="36.0821" y2="10.4774" gradientUnits="userSpaceOnUse">
<stop offset="0.671875" stop-color="white"/>
<stop offset="1" stop-color="#728FDE"/>
</linearGradient>
<linearGradient id="paint11_linear_6_126" x1="39.877" y1="21.1756" x2="39.877" y2="26.9894" gradientUnits="userSpaceOnUse">
<stop offset="0.671875" stop-color="white"/>
<stop offset="1" stop-color="#728FDE"/>
</linearGradient>
<clipPath id="clip0_6_126">
<rect width="64" height="64" fill="white"/>
</clipPath>
</defs>
</svg>
